<?xml version="1.0" encoding="UTF-8" standalone="no"?>
<svg
   xmlns:dc="http://purl.org/dc/elements/1.1/"
   xmlns:cc="http://creativecommons.org/ns#"
   xmlns:rdf="http://www.w3.org/1999/02/22-rdf-syntax-ns#"
   xmlns:svg="http://www.w3.org/2000/svg"
   xmlns="http://www.w3.org/2000/svg"
   xmlns:sodipodi="http://sodipodi.sourceforge.net/DTD/sodipodi-0.dtd"
   xmlns:inkscape="http://www.inkscape.org/namespaces/inkscape"
   aria-hidden="true"
   focusable="false"
   data-prefix="fab"
   data-icon="napster"
   class="svg-inline--fa fa-napster fa-w-16"
   role="img"
   viewBox="0 0 496 512"
   version="1.1"
   id="svg4"
   sodipodi:docname="Napster1.svg"
   inkscape:version="0.92.5 (2060ec1f9f, 2020-04-08)">
  <metadata
     id="metadata10">
    <rdf:RDF>
      <cc:Work
         rdf:about="">
        <dc:format>image/svg+xml</dc:format>
        <dc:type
           rdf:resource="http://purl.org/dc/dcmitype/StillImage" />
        <dc:title></dc:title>
      </cc:Work>
    </rdf:RDF>
  </metadata>
  <defs
     id="defs8" />
  <sodipodi:namedview
     pagecolor="#ffffff"
     bordercolor="#666666"
     borderopacity="1"
     objecttolerance="10"
     gridtolerance="10"
     guidetolerance="10"
     inkscape:pageopacity="0"
     inkscape:pageshadow="2"
     inkscape:window-width="1848"
     inkscape:window-height="1016"
     id="namedview6"
     showgrid="false"
     inkscape:zoom="14.232726"
     inkscape:cx="247.96881"
     inkscape:cy="101.6495"
     inkscape:window-x="72"
     inkscape:window-y="27"
     inkscape:window-maximized="1"
     inkscape:current-layer="svg4" />
  <path
     d="M298.3 373.6c-14.2 13.6-31.3 24.1-50.4 30.5-19-6.4-36.2-16.9-50.3-30.5h100.7zm44-199.6c20-16.9 43.6-29.2 69.6-36.2V299c0 219.4-328 217.6-328 .3V137.7c25.9 6.9 49.6 19.6 69.5 36.4 56.8-40 132.5-39.9 188.9-.1zm-208.8-58.5c64.4-60 164.3-60.1 228.9-.2-7.1 3.5-13.9 7.3-20.6 11.5-58.7-30.5-129.2-30.4-187.9.1-6.3-4-13.9-8.2-20.4-11.4zM43.8 93.2v69.3c-58.4 36.5-58.4 121.1.1 158.3 26.4 245.1 381.7 240.3 407.6 1.5l.3-1.7c58.7-36.3 58.9-121.7.2-158.2V93.2c-17.3.5-34 3-50.1 7.4-82-91.5-225.5-91.5-307.5.1-16.3-4.4-33.1-7-50.6-7.5zM259.2 352s36-.3 61.3-1.5c10.2-.5 21.1-4 25.5-6.5 26.3-15.1 25.4-39.2 26.2-47.4-79.5-.6-99.9-3.9-113 55.4zm-135.5-55.3c.8 8.2-.1 32.3 26.2 47.4 4.4 2.5 15.2 6 25.5 6.5 25.3 1.1 61.3 1.5 61.3 1.5-13.2-59.4-33.7-56.1-113-55.4zm169.1 123.4c-3.2-5.3-6.9-7.3-6.9-7.3-24.8 7.3-52.2 6.9-75.9 0 0 0-2.9 1.5-6.4 6.6-2.8 4.1-3.7 9.6-3.7 9.6 29.1 17.6 67.1 17.6 96.2 0-.1-.1-.3-4-3.3-8.9z"
     id="path2"
     fill="currentColor" />
  <path
     style="fill:#ffcc00;stroke:#000000;stroke-width:1px;stroke-linecap:butt;stroke-linejoin:miter;stroke-opacity:1"
     d="m 219.0358,414.85442 c 0.10183,0.40731 0.30549,0.8021 0.30549,1.22195 0,0.10183 -0.23349,-0.072 -0.30549,0 -0.072,0.072 0.072,0.23349 0,0.30549 -0.072,0.072 -0.23349,-0.072 -0.30549,0 -0.15274,0.15275 0.15275,0.76372 0,0.91647 -0.072,0.072 -0.23348,-0.072 -0.30549,0 -0.072,0.072 0.072,0.23348 0,0.30549 -0.20382,0.20382 -0.40716,-0.20382 -0.61098,0 -0.15274,0.15274 0.15275,0.76372 0,0.91647 -0.072,0.072 -0.23348,-0.072 -0.30549,0 -0.14401,0.14401 0.14401,0.46697 0,0.61097 -0.072,0.072 -0.23348,-0.072 -0.30549,0 -0.144,0.14401 0.0911,0.42882 0,0.61098 -0.0644,0.12881 -0.24108,0.17669 -0.30549,0.30549 -0.0964,0.19273 0.0964,1.33473 0,1.52745 -0.0644,0.1288 -0.24108,0.17668 -0.30548,0.30549 -0.0829,0.16572 0.0836,1.13837 0,1.22196 -0.072,0.072 -0.23349,-0.072 -0.30549,0 -0.15275,0.15274 0.15274,0.76372 0,0.91646 -0.072,0.072 -0.23349,-0.072 -0.30549,0 -0.072,0.072 0,0.20366 0,0.30549 0,0.10183 -0.072,0.23349 0,0.30549 0.072,0.072 0.21441,-0.0455 0.30549,0 0.1288,0.0644 0.17668,0.24109 0.30549,0.30549 0.0911,0.0455 0.20366,0 0.30548,0 0.10183,0 0.20366,0 0.30549,0 0.50915,0 1.0183,0 1.52745,0 0.20366,0 0.40732,0 0.61098,0 0.10183,0 0.23348,-0.072 0.30549,0 0.072,0.072 -0.072,0.23349 0,0.30549 0.0836,0.0836 1.05623,-0.0829 1.22196,0 0.1288,0.0644 0.17668,0.24109 0.30548,0.30549 0.18216,0.0911 0.42882,-0.0911 0.61098,0 0.12881,0.0644 0.17669,0.24109 0.30549,0.30549 0.0911,0.0455 0.23349,-0.072 0.30549,0 0.072,0.072 -0.072,0.23348 0,0.30549 0.072,0.072 0.20366,0 0.30549,0 0.10183,0 0.20366,0 0.30549,0 0.30113,0 0.9121,0 0.61098,0 -0.20366,0 -0.81464,0 -0.61098,0 0.30549,0 0.61098,0 0.91647,0 0.10183,0 0.23348,-0.072 0.30549,0 0.072,0.072 -0.10183,0.30549 0,0.30549 0.53951,0 0.18957,-0.91647 0.30549,-0.91647 0.0913,0 -0.2011,1.01318 0.30549,0 0.0395,-0.079 0,-1.6164 0,-1.83294 0,-0.10183 0,-0.20366 0,-0.30549 0,-0.10183 -0.072,-0.23348 0,-0.30548 0.072,-0.072 0.23348,0.072 0.30548,0 0.072,-0.072 -0.072,-0.23349 0,-0.30549 0.072,-0.072 0.23349,0.072 0.30549,0 0.14401,-0.14401 -0.20366,-0.61098 0,-0.61098 0.43278,0 -0.86555,1.42561 0,-0.30549 0.0455,-0.0911 0.23349,0.072 0.30549,0 0.14401,-0.14401 -0.0911,-0.42882 0,-0.61098 0.0644,-0.12881 0.24109,-0.17668 0.30549,-0.30549 0.10551,-0.21101 -0.10723,-1.42021 0,-1.52745 0.072,-0.072 0.23349,0.072 0.30549,0 0.14401,-0.144 -0.20366,-0.61097 0,-0.61097 0.10183,0 0,0.40731 0,0.30548 0,-0.30548 0,-0.61097 0,-0.91646 0,-0.10183 -0.072,-0.23349 0,-0.30549 0.072,-0.072 0.23349,0.072 0.30549,0 0.15275,-0.15275 -0.15274,-0.76373 0,-0.91647 0.072,-0.072 0.23349,0.072 0.30549,0 0.01,-0.01 0,-0.84238 0,-0.91647"
     id="path3737"
     inkscape:connector-curvature="0" />
  <path
     style="fill:#ffcc00;stroke:#000000;stroke-width:1px;stroke-linecap:butt;stroke-linejoin:miter;stroke-opacity:1"
     d="m 219.0358,414.85442 c -2.56287,9.46034 -2.21156,9.31982 -2.21156,9.31982 l 0.3513,0.42156 6.25319,1.75652 0.91339,-0.28104 2.6364,-9.99491 z"
     id="path62"
     inkscape:connector-curvature="0" />
</svg>
